<svg width="40" height="40" viewBox="0 0 40 40" fill="none" xmlns="http://www.w3.org/2000/svg">
<circle cx="20" cy="20" r="20" fill="white"/>
<circle cx="20" cy="20" r="18" fill="white"/>
<circle cx="20" cy="20" r="18" fill="url(#paint0_linear)"/>
<path d="M16.4445 19.0708L21.3396 14.1757C21.4529 14.0624 21.604 14 21.7652 14C21.9263 14 22.0774 14.0624 22.1907 14.1757L22.5512 14.5361C22.7857 14.771 22.7857 15.1527 22.5512 15.3872L18.4406 19.4977L22.5557 23.6128C22.6689 23.7262 22.7314 23.8772 22.7314 24.0383C22.7314 24.1995 22.6689 24.3506 22.5557 24.464L22.1952 24.8243C22.0819 24.9376 21.9309 25 21.7697 25C21.6086 25 21.4574 24.9376 21.3442 24.8243L16.4445 19.9247C16.331 19.8111 16.2687 19.6593 16.269 19.498C16.2687 19.336 16.331 19.1844 16.4445 19.0708Z" fill="white"/>
<defs>
<linearGradient id="paint0_linear" x1="17.72" y1="2" x2="43.0868" y2="13.0551" gradientUnits="userSpaceOnUse">
<stop stop-color="#F68B0E"/>
<stop offset="1" stop-color="#F0BA3E"/>
</linearGradient>
</defs>
</svg>
