<svg width="40" height="40" viewBox="0 0 40 40" fill="none" xmlns="http://www.w3.org/2000/svg">
<circle r="20" transform="matrix(-1 0 0 1 20 20)" fill="white"/>
<g filter="url(#filter0_i)">
<circle r="18" transform="matrix(-1 0 0 1 20 20)" fill="white"/>
<circle r="18" transform="matrix(-1 0 0 1 20 20)" fill="url(#paint0_linear)"/>
</g>
<path d="M23.5555 19.0708L18.6604 14.1757C18.5471 14.0624 18.396 14 18.2348 14C18.0737 14 17.9226 14.0624 17.8093 14.1757L17.4488 14.5361C17.2143 14.771 17.2143 15.1527 17.4488 15.3872L21.5594 19.4977L17.4443 23.6128C17.3311 23.7262 17.2686 23.8772 17.2686 24.0383C17.2686 24.1995 17.3311 24.3506 17.4443 24.464L17.8048 24.8243C17.9181 24.9376 18.0691 25 18.2303 25C18.3914 25 18.5426 24.9376 18.6558 24.8243L23.5555 19.9247C23.669 19.8111 23.7313 19.6593 23.731 19.498C23.7313 19.336 23.669 19.1844 23.5555 19.0708Z" fill="white"/>
<defs>
<filter id="filter0_i" x="2" y="2" width="36" height="40" filterUnits="userSpaceOnUse" color-interpolation-filters="sRGB">
<feFlood flood-opacity="0" result="BackgroundImageFix"/>
<feBlend mode="normal" in="SourceGraphic" in2="BackgroundImageFix" result="shape"/>
<feColorMatrix in="SourceAlpha" type="matrix" values="0 0 0 0 0 0 0 0 0 0 0 0 0 0 0 0 0 0 127 0" result="hardAlpha"/>
<feOffset dy="4"/>
<feGaussianBlur stdDeviation="5"/>
<feComposite in2="hardAlpha" operator="arithmetic" k2="-1" k3="1"/>
<feColorMatrix type="matrix" values="0 0 0 0 1 0 0 0 0 1 0 0 0 0 1 0 0 0 0.25 0"/>
<feBlend mode="normal" in2="shape" result="effect1_innerShadow"/>
</filter>
<linearGradient id="paint0_linear" x1="15.72" y1="-1.23558e-06" x2="41.0868" y2="11.0551" gradientUnits="userSpaceOnUse">
<stop stop-color="#F68B0E"/>
<stop offset="1" stop-color="#F0BA3E"/>
</linearGradient>
</defs>
</svg>
