<svg width="16" height="16" viewBox="0 0 16 16" fill="none" xmlns="http://www.w3.org/2000/svg">
<path d="M3.55556 7.37568L10.6758 0.255608C10.8404 0.090796 11.0603 0 11.2947 0C11.5291 0 11.7489 0.090796 11.9136 0.255608L12.438 0.779831C12.7792 1.12142 12.7792 1.6766 12.438 2.01767L6.45895 7.99668L12.4446 13.9823C12.6093 14.1471 12.7002 14.3668 12.7002 14.6011C12.7002 14.8357 12.6093 15.0554 12.4446 15.2203L11.9202 15.7444C11.7554 15.9092 11.5357 16 11.3013 16C11.0669 16 10.8471 15.9092 10.6824 15.7444L3.55556 8.61782C3.39048 8.45248 3.29982 8.23174 3.30034 7.99707C3.29982 7.7615 3.39048 7.54088 3.55556 7.37568Z" fill="black"/>
<path d="M3.55556 7.37568L10.6758 0.255608C10.8404 0.090796 11.0603 0 11.2947 0C11.5291 0 11.7489 0.090796 11.9136 0.255608L12.438 0.779831C12.7792 1.12142 12.7792 1.6766 12.438 2.01767L6.45895 7.99668L12.4446 13.9823C12.6093 14.1471 12.7002 14.3668 12.7002 14.6011C12.7002 14.8357 12.6093 15.0554 12.4446 15.2203L11.9202 15.7444C11.7554 15.9092 11.5357 16 11.3013 16C11.0669 16 10.8471 15.9092 10.6824 15.7444L3.55556 8.61782C3.39048 8.45248 3.29982 8.23174 3.30034 7.99707C3.29982 7.7615 3.39048 7.54088 3.55556 7.37568Z" fill="url(#paint0_linear)"/>
<defs>
<linearGradient id="paint0_linear" x1="8.59559" y1="-5.49148e-07" x2="1.19901" y2="1.89377" gradientUnits="userSpaceOnUse">
<stop stop-color="#F68B0E"/>
<stop offset="1" stop-color="#F0BA3E"/>
</linearGradient>
</defs>
</svg>
