<svg width="33" height="18" viewBox="0 0 33 18" fill="none" xmlns="http://www.w3.org/2000/svg">
<path d="M15.4141 2.12132C15.0236 1.7308 15.0236 1.09763 15.4141 0.707108V0.707108C15.8047 0.316584 16.4378 0.316584 16.8284 0.707108L31.6776 15.5564C32.0681 15.9469 32.0681 16.58 31.6776 16.9706V16.9706C31.2871 17.3611 30.6539 17.3611 30.2634 16.9706L15.4141 2.12132Z" fill="white"/>
<path d="M15.5566 0.707114C15.9471 0.31659 16.5803 0.31659 16.9708 0.707114V0.707114C17.3613 1.09764 17.3613 1.7308 16.9708 2.12133L2.12154 16.9706C1.73101 17.3611 1.09785 17.3611 0.707324 16.9706V16.9706C0.316799 16.58 0.316799 15.9469 0.707324 15.5564L15.5566 0.707114Z" fill="white"/>
</svg>
