<svg width="50" height="50" viewBox="0 0 50 50" fill="none" xmlns="http://www.w3.org/2000/svg">
<g clip-path="url(#clip0)">
<path d="M43.6138 12.1477L31.8953 0.429199C31.6218 0.155566 31.2484 0 30.8594 0H10.3516C7.92842 0 5.95703 1.97139 5.95703 4.39453V45.6055C5.95703 48.0286 7.92842 50 10.3516 50H39.6484C42.0716 50 44.043 48.0286 44.043 45.6055V13.1836C44.043 12.7842 43.8753 12.4091 43.6138 12.1477ZM32.3242 5.00127L39.0417 11.7188H33.7891C32.9813 11.7188 32.3242 11.0616 32.3242 10.2539V5.00127ZM39.6484 47.0703H10.3516C9.54385 47.0703 8.88672 46.4132 8.88672 45.6055V4.39453C8.88672 3.58682 9.54385 2.92969 10.3516 2.92969H29.3945V10.2539C29.3945 12.6771 31.3659 14.6484 33.7891 14.6484H41.1133V45.6055C41.1133 46.4132 40.4562 47.0703 39.6484 47.0703Z" fill="#4B7BC0"/>
<path d="M33.7891 20.7031H16.2109C15.402 20.7031 14.7461 21.359 14.7461 22.168C14.7461 22.977 15.402 23.6328 16.2109 23.6328H33.7891C34.598 23.6328 35.2539 22.977 35.2539 22.168C35.2539 21.359 34.598 20.7031 33.7891 20.7031Z" fill="#4B7BC0"/>
<path d="M33.7891 26.5625H16.2109C15.402 26.5625 14.7461 27.2184 14.7461 28.0273C14.7461 28.8363 15.402 29.4922 16.2109 29.4922H33.7891C34.598 29.4922 35.2539 28.8363 35.2539 28.0273C35.2539 27.2184 34.598 26.5625 33.7891 26.5625Z" fill="#4B7BC0"/>
<path d="M33.7891 32.4219H16.2109C15.402 32.4219 14.7461 33.0777 14.7461 33.8867C14.7461 34.6957 15.402 35.3516 16.2109 35.3516H33.7891C34.598 35.3516 35.2539 34.6957 35.2539 33.8867C35.2539 33.0777 34.598 32.4219 33.7891 32.4219Z" fill="#4B7BC0"/>
<path d="M27.9297 38.2812H16.2109C15.402 38.2812 14.7461 38.9371 14.7461 39.7461C14.7461 40.5551 15.402 41.2109 16.2109 41.2109H27.9297C28.7387 41.2109 29.3945 40.5551 29.3945 39.7461C29.3945 38.9371 28.7387 38.2812 27.9297 38.2812Z" fill="#4B7BC0"/>
</g>
<defs>
<clipPath id="clip0">
<rect width="50" height="50" fill="white"/>
</clipPath>
</defs>
</svg>
