<svg width="480" height="15" viewBox="0 0 480 15" fill="none" xmlns="http://www.w3.org/2000/svg">
<path d="M0.214285 0H12L1 15H-12L0.214285 0Z" fill="#FBD785"/>
<path d="M48.2143 0H60L49 15H36L48.2143 0Z" fill="#FBD785"/>
<path d="M96.2143 0H108L97 15H84L96.2143 0Z" fill="#FBD785"/>
<path d="M144.214 0H156L145 15H132L144.214 0Z" fill="#FBD785"/>
<path d="M192.214 0H204L193 15H180L192.214 0Z" fill="#FBD785"/>
<path d="M240.214 0H252L241 15H228L240.214 0Z" fill="#FBD785"/>
<path d="M288.214 0H300L289 15H276L288.214 0Z" fill="#FBD785"/>
<path d="M336.214 0H348L337 15H324L336.214 0Z" fill="#FBD785"/>
<path d="M384.214 0H396L385 15H372L384.214 0Z" fill="#FBD785"/>
<path d="M432.214 0H444L433 15H420L432.214 0Z" fill="#FBD785"/>
<path d="M24.2143 0H36L25 15H12L24.2143 0Z" fill="#FBD785"/>
<path d="M72.2143 0H84L73 15H60L72.2143 0Z" fill="#FBD785"/>
<path d="M120.214 0H132L121 15H108L120.214 0Z" fill="#FBD785"/>
<path d="M168.214 0H180L169 15H156L168.214 0Z" fill="#FBD785"/>
<path d="M216.214 0H228L217 15H204L216.214 0Z" fill="#FBD785"/>
<path d="M264.214 0H276L265 15H252L264.214 0Z" fill="#FBD785"/>
<path d="M312.214 0H324L313 15H300L312.214 0Z" fill="#FBD785"/>
<path d="M360.214 0H372L361 15H348L360.214 0Z" fill="#FBD785"/>
<path d="M408.214 0H420L409 15H396L408.214 0Z" fill="#FBD785"/>
<path d="M456.214 0H468L457 15H444L456.214 0Z" fill="#FBD785"/>
<path d="M480.214 0H492L481 15H468L480.214 0Z" fill="#FBD785"/>
</svg>
