<svg width="1052" height="15" viewBox="0 0 1052 15" fill="none" xmlns="http://www.w3.org/2000/svg">
<mask id="mask0" mask-type="alpha" maskUnits="userSpaceOnUse" x="0" y="0" width="1052" height="15">
<rect width="1052" height="15" fill="#C4C4C4"/>
</mask>
<g mask="url(#mask0)">
<path d="M8.21428 0L20 0L9 15H-4L8.21428 0Z" fill="#FBD785"/>
<path d="M176.214 0L188 0L177 15H164L176.214 0Z" fill="#FBD785"/>
<path d="M344.214 0L356 0L345 15H332L344.214 0Z" fill="#FBD785"/>
<path d="M512.214 0L524 0L513 15H500L512.214 0Z" fill="#FBD785"/>
<path d="M800.214 0L812 0L801 15H788L800.214 0Z" fill="#FBD785"/>
<path d="M32.2143 0L44 0L33 15H20L32.2143 0Z" fill="#FBD785"/>
<path d="M200.214 0L212 0L201 15H188L200.214 0Z" fill="#FBD785"/>
<path d="M368.214 0L380 0L369 15H356L368.214 0Z" fill="#FBD785"/>
<path d="M536.214 0L548 0L537 15H524L536.214 0Z" fill="#FBD785"/>
<path d="M824.214 0L836 0L825 15H812L824.214 0Z" fill="#FBD785"/>
<path d="M56.2143 0L68 0L57 15H44L56.2143 0Z" fill="#FBD785"/>
<path d="M224.214 0L236 0L225 15H212L224.214 0Z" fill="#FBD785"/>
<path d="M392.214 0L404 0L393 15H380L392.214 0Z" fill="#FBD785"/>
<path d="M680.214 0L692 0L681 15H668L680.214 0Z" fill="#FBD785"/>
<path d="M560.214 0L572 0L561 15H548L560.214 0Z" fill="#FBD785"/>
<path d="M848.214 0L860 0L849 15H836L848.214 0Z" fill="#FBD785"/>
<path d="M80.2143 0L92 0L81 15H68L80.2143 0Z" fill="#FBD785"/>
<path d="M248.214 0L260 0L249 15H236L248.214 0Z" fill="#FBD785"/>
<path d="M416.214 0L428 0L417 15H404L416.214 0Z" fill="#FBD785"/>
<path d="M704.214 0L716 0L705 15H692L704.214 0Z" fill="#FBD785"/>
<path d="M584.214 0L596 0L585 15H572L584.214 0Z" fill="#FBD785"/>
<path d="M872.214 0L884 0L873 15H860L872.214 0Z" fill="#FBD785"/>
<path d="M104.214 0L116 0L105 15H92L104.214 0Z" fill="#FBD785"/>
<path d="M272.214 0L284 0L273 15H260L272.214 0Z" fill="#FBD785"/>
<path d="M440.214 0L452 0L441 15H428L440.214 0Z" fill="#FBD785"/>
<path d="M728.214 0L740 0L729 15H716L728.214 0Z" fill="#FBD785"/>
<path d="M608.214 0L620 0L609 15H596L608.214 0Z" fill="#FBD785"/>
<path d="M896.214 0L908 0L897 15H884L896.214 0Z" fill="#FBD785"/>
<path d="M968.214 0L980 0L969 15H956L968.214 0Z" fill="#FBD785"/>
<path d="M128.214 0L140 0L129 15H116L128.214 0Z" fill="#FBD785"/>
<path d="M296.214 0L308 0L297 15H284L296.214 0Z" fill="#FBD785"/>
<path d="M464.214 0L476 0L465 15H452L464.214 0Z" fill="#FBD785"/>
<path d="M752.214 0L764 0L753 15H740L752.214 0Z" fill="#FBD785"/>
<path d="M632.214 0L644 0L633 15H620L632.214 0Z" fill="#FBD785"/>
<path d="M920.214 0L932 0L921 15H908L920.214 0Z" fill="#FBD785"/>
<path d="M992.214 0L1004 0L993 15H980L992.214 0Z" fill="#FBD785"/>
<path d="M152.214 0L164 0L153 15H140L152.214 0Z" fill="#FBD785"/>
<path d="M320.214 0L332 0L321 15H308L320.214 0Z" fill="#FBD785"/>
<path d="M488.214 0L500 0L489 15H476L488.214 0Z" fill="#FBD785"/>
<path d="M776.214 0L788 0L777 15H764L776.214 0Z" fill="#FBD785"/>
<path d="M656.214 0L668 0L657 15H644L656.214 0Z" fill="#FBD785"/>
<path d="M944.214 0L956 0L945 15H932L944.214 0Z" fill="#FBD785"/>
<path d="M1016.21 0L1028 0L1017 15H1004L1016.21 0Z" fill="#FBD785"/>
<path d="M1040.21 0L1052 0L1041 15H1028L1040.21 0Z" fill="#FBD785"/>
</g>
</svg>
