<svg width="32" height="33" viewBox="0 0 32 33" fill="none" xmlns="http://www.w3.org/2000/svg">
<path d="M16 0.5C12.8355 0.5 9.74207 1.43838 7.11088 3.19649C4.4797 4.95459 2.42894 7.45345 1.21793 10.3771C0.00693252 13.3007 -0.309921 16.5177 0.307443 19.6214C0.924806 22.7251 2.44866 25.5761 4.6863 27.8137C6.92394 30.0513 9.77486 31.5752 12.8786 32.1926C15.9823 32.8099 19.1993 32.4931 22.1229 31.2821C25.0466 30.0711 27.5454 28.0203 29.3035 25.3891C31.0616 22.7579 32 19.6645 32 16.5C31.9964 12.2576 30.3095 8.19007 27.3097 5.19027C24.3099 2.19047 20.2424 0.503606 16 0.5ZM16 23.0838C14.6978 23.0838 13.4249 22.6977 12.3422 21.9742C11.2595 21.2508 10.4157 20.2226 9.91734 19.0195C9.41903 17.8165 9.28864 16.4927 9.54268 15.2156C9.79672 13.9384 10.4238 12.7653 11.3445 11.8445C12.2653 10.9238 13.4384 10.2967 14.7156 10.0427C15.9927 9.78864 17.3165 9.91902 18.5195 10.4173C19.7226 10.9156 20.7508 11.7595 21.4743 12.8422C22.1977 13.9249 22.5838 15.1978 22.5838 16.5C22.582 18.2456 21.8878 19.9192 20.6535 21.1535C19.4192 22.3878 17.7456 23.082 16 23.0838ZM24.926 9.98425C24.6057 10.3027 24.1725 10.4815 23.7209 10.4815C23.2692 10.4815 22.836 10.3027 22.5157 9.98425C22.4397 9.9028 22.3692 9.81637 22.3047 9.72553C22.2418 9.63161 22.1893 9.53117 22.1481 9.42596C22.1061 9.32495 22.0742 9.22005 22.0528 9.11276C22.0427 9.00178 22.0427 8.89013 22.0528 8.77915C22.0556 8.32814 22.2339 7.89594 22.5498 7.57404C22.6298 7.49638 22.7164 7.42577 22.8085 7.36298C22.9937 7.23855 23.2021 7.15286 23.4213 7.11106C23.6961 7.05617 23.9801 7.06968 24.2484 7.15042C24.5168 7.23116 24.7611 7.37663 24.96 7.57404C25.2785 7.89426 25.4573 8.32752 25.4573 8.77915C25.4573 9.23077 25.2785 9.66404 24.96 9.98425H24.926ZM20.5413 16.5C20.5413 17.3982 20.2749 18.2762 19.7759 19.023C19.2769 19.7698 18.5677 20.3519 17.7379 20.6956C16.9081 21.0393 15.995 21.1292 15.114 20.954C14.2331 20.7788 13.4239 20.3463 12.7888 19.7112C12.1537 19.0761 11.7212 18.2669 11.546 17.386C11.3708 16.505 11.4607 15.5919 11.8044 14.7621C12.1481 13.9323 12.7302 13.2231 13.477 12.7241C14.2238 12.2251 15.1018 11.9587 16 11.9587C17.2044 11.9587 18.3595 12.4372 19.2112 13.2888C20.0628 14.1405 20.5413 15.2956 20.5413 16.5Z" fill="#909DA3" fill-opacity="0.5"/>
</svg>
