<svg width="20" height="10" viewBox="0 0 20 10" fill="none" xmlns="http://www.w3.org/2000/svg">
<g clip-path="url(#clip0)">
<path d="M0.229141 4.42927C0.229376 4.42903 0.22957 4.42875 0.229843 4.42851L4.31203 0.234958C4.61785 -0.0791951 5.1125 -0.078026 5.41691 0.2377C5.72129 0.553385 5.72012 1.06399 5.4143 1.37818L2.67352 4.19367H19.2188C19.6502 4.19367 20 4.55472 20 5.00012C20 5.44552 19.6502 5.80657 19.2188 5.80657H2.67355L5.41426 8.62206C5.72008 8.93625 5.72125 9.44685 5.41687 9.76254C5.11246 10.0783 4.61777 10.0794 4.31199 9.76528L0.229805 5.57173C0.22957 5.57149 0.229374 5.57121 0.229101 5.57097C-0.0768757 5.25573 -0.0758991 4.74347 0.229141 4.42927Z" fill="#4B7BC0"/>
</g>
<defs>
<clipPath id="clip0">
<rect width="20" height="10" fill="white" transform="matrix(-1 0 0 1 20 0)"/>
</clipPath>
</defs>
</svg>
