<svg width="35" height="35" viewBox="0 0 35 35" fill="none" xmlns="http://www.w3.org/2000/svg">
<circle cx="17.5" cy="17.5" r="17.5" fill="#FFF6E1"/>
<path d="M19.9301 16.8953C22.6582 16.8953 24.8773 14.6758 24.8773 11.9477C24.8773 9.21953 22.6582 7 19.9301 7C17.202 7 14.9824 9.21953 14.9824 11.9477C14.9824 14.6758 17.202 16.8953 19.9301 16.8953ZM19.3441 9.03945V8.90508C19.3441 8.58125 19.6062 8.31914 19.9301 8.31914C20.2535 8.31914 20.516 8.58125 20.516 8.90508V9.04023C21.2133 9.18984 21.7379 9.81094 21.7379 10.5523C21.7379 10.8758 21.4754 11.1383 21.152 11.1383C20.8281 11.1383 20.566 10.8758 20.566 10.5523C20.566 10.3457 20.3977 10.1773 20.191 10.1773H19.6656C19.459 10.1773 19.2906 10.3457 19.2906 10.5523C19.2906 10.6707 19.3473 10.7832 19.4426 10.8535L19.9301 11.2145L21.1145 12.091C21.5035 12.3789 21.7379 12.8395 21.741 13.3238V13.3293C21.7438 13.7426 21.5855 14.1324 21.2949 14.4266C21.0793 14.6449 20.8098 14.7914 20.516 14.8531V14.9902C20.516 15.3141 20.2535 15.5762 19.9301 15.5762C19.6062 15.5762 19.3441 15.3141 19.3441 14.9902V14.8551C19.0582 14.7941 18.7953 14.6535 18.5828 14.4434C18.2887 14.1531 18.1254 13.7656 18.123 13.3523C18.1211 13.0289 18.3816 12.7648 18.7051 12.7629H18.709C19.0309 12.7629 19.293 13.023 19.2949 13.3453C19.2957 13.5475 19.4584 13.718 19.6719 13.718C19.9956 13.716 19.875 13.7167 20.1965 13.7148C20.4045 13.7132 20.5707 13.5444 20.5691 13.3371V13.3316C20.5684 13.2145 20.5117 13.1027 20.4172 13.0328L19.9301 12.6723L18.7453 11.7957C18.3531 11.5051 18.1188 11.0402 18.1188 10.5523C18.1188 9.80938 18.6449 9.18789 19.3441 9.03945Z" fill="#2389FC"/>
<path d="M19.9301 16.8953C22.6582 16.8953 24.8773 14.6758 24.8773 11.9477C24.8773 9.21953 22.6582 7 19.9301 7C17.202 7 14.9824 9.21953 14.9824 11.9477C14.9824 14.6758 17.202 16.8953 19.9301 16.8953ZM19.3441 9.03945V8.90508C19.3441 8.58125 19.6062 8.31914 19.9301 8.31914C20.2535 8.31914 20.516 8.58125 20.516 8.90508V9.04023C21.2133 9.18984 21.7379 9.81094 21.7379 10.5523C21.7379 10.8758 21.4754 11.1383 21.152 11.1383C20.8281 11.1383 20.566 10.8758 20.566 10.5523C20.566 10.3457 20.3977 10.1773 20.191 10.1773H19.6656C19.459 10.1773 19.2906 10.3457 19.2906 10.5523C19.2906 10.6707 19.3473 10.7832 19.4426 10.8535L19.9301 11.2145L21.1145 12.091C21.5035 12.3789 21.7379 12.8395 21.741 13.3238V13.3293C21.7438 13.7426 21.5855 14.1324 21.2949 14.4266C21.0793 14.6449 20.8098 14.7914 20.516 14.8531V14.9902C20.516 15.3141 20.2535 15.5762 19.9301 15.5762C19.6062 15.5762 19.3441 15.3141 19.3441 14.9902V14.8551C19.0582 14.7941 18.7953 14.6535 18.5828 14.4434C18.2887 14.1531 18.1254 13.7656 18.123 13.3523C18.1211 13.0289 18.3816 12.7648 18.7051 12.7629H18.709C19.0309 12.7629 19.293 13.023 19.2949 13.3453C19.2957 13.5475 19.4584 13.718 19.6719 13.718C19.9956 13.716 19.875 13.7167 20.1965 13.7148C20.4045 13.7132 20.5707 13.5444 20.5691 13.3371V13.3316C20.5684 13.2145 20.5117 13.1027 20.4172 13.0328L19.9301 12.6723L18.7453 11.7957C18.3531 11.5051 18.1188 11.0402 18.1188 10.5523C18.1188 9.80938 18.6449 9.18789 19.3441 9.03945Z" fill="url(#paint0_linear)"/>
<path d="M11.9137 19.7106C11.7635 19.4502 11.4298 19.3596 11.1678 19.5107L8.41167 21.1018C8.1507 21.2528 8.06116 21.5866 8.21183 21.8479L11.0288 26.7269C11.1796 26.9878 11.5132 27.0774 11.7746 26.9268L14.5308 25.3353C14.7921 25.1846 14.8813 24.8509 14.7306 24.5895L11.9137 19.7106Z" fill="#2389FC"/>
<path d="M11.9137 19.7106C11.7635 19.4502 11.4298 19.3596 11.1678 19.5107L8.41167 21.1018C8.1507 21.2528 8.06116 21.5866 8.21183 21.8479L11.0288 26.7269C11.1796 26.9878 11.5132 27.0774 11.7746 26.9268L14.5308 25.3353C14.7921 25.1846 14.8813 24.8509 14.7306 24.5895L11.9137 19.7106Z" fill="url(#paint1_linear)"/>
<path d="M27.7074 18.7367C27.4422 18.3684 26.9289 18.2852 26.5609 18.5504C25.4445 19.3547 23.3008 20.8992 23.1305 21.0223C23.052 21.0891 22.9695 21.1496 22.8836 21.2031C22.5465 21.4152 22.1555 21.5285 21.7473 21.5285H18.9406C18.6172 21.5285 18.3547 21.2664 18.3547 20.9426C18.3547 20.6184 18.6176 20.3566 18.9406 20.3566H21.9422C22.3832 20.3566 22.7363 19.9895 22.718 19.5477C22.7008 19.1285 22.343 18.8035 21.9234 18.8035H19.6387C19.484 18.6398 19.3145 18.4898 19.1328 18.3559C18.5082 17.8953 17.7363 17.623 16.9008 17.623C15.4152 17.623 13.9371 18.559 13.3242 19.8082L15.7211 23.9594H20.2172C21.1 23.9594 21.9695 23.7336 22.7348 23.2934C23 23.141 23.284 22.9578 23.5918 22.7367C24.8816 21.8102 27.5188 19.8852 27.5207 19.884C27.8895 19.6191 27.9731 19.1051 27.7074 18.7367Z" fill="#2389FC"/>
<path d="M27.7074 18.7367C27.4422 18.3684 26.9289 18.2852 26.5609 18.5504C25.4445 19.3547 23.3008 20.8992 23.1305 21.0223C23.052 21.0891 22.9695 21.1496 22.8836 21.2031C22.5465 21.4152 22.1555 21.5285 21.7473 21.5285H18.9406C18.6172 21.5285 18.3547 21.2664 18.3547 20.9426C18.3547 20.6184 18.6176 20.3566 18.9406 20.3566H21.9422C22.3832 20.3566 22.7363 19.9895 22.718 19.5477C22.7008 19.1285 22.343 18.8035 21.9234 18.8035H19.6387C19.484 18.6398 19.3145 18.4898 19.1328 18.3559C18.5082 17.8953 17.7363 17.623 16.9008 17.623C15.4152 17.623 13.9371 18.559 13.3242 19.8082L15.7211 23.9594H20.2172C21.1 23.9594 21.9695 23.7336 22.7348 23.2934C23 23.141 23.284 22.9578 23.5918 22.7367C24.8816 21.8102 27.5188 19.8852 27.5207 19.884C27.8895 19.6191 27.9731 19.1051 27.7074 18.7367Z" fill="url(#paint2_linear)"/>
<defs>
<linearGradient id="paint0_linear" x1="19.3032" y1="7" x2="26.2756" y2="10.0385" gradientUnits="userSpaceOnUse">
<stop stop-color="#F68B0E"/>
<stop offset="1" stop-color="#F0BA3E"/>
</linearGradient>
<linearGradient id="paint1_linear" x1="11.0491" y1="19.4375" x2="15.9192" y2="21.3081" gradientUnits="userSpaceOnUse">
<stop stop-color="#F68B0E"/>
<stop offset="1" stop-color="#F0BA3E"/>
</linearGradient>
<linearGradient id="paint2_linear" x1="19.6727" y1="17.623" x2="25.768" y2="23.718" gradientUnits="userSpaceOnUse">
<stop stop-color="#F68B0E"/>
<stop offset="1" stop-color="#F0BA3E"/>
</linearGradient>
</defs>
</svg>
