<svg width="35" height="35" viewBox="0 0 35 35" fill="none" xmlns="http://www.w3.org/2000/svg">
<circle cx="17.5" cy="17.5" r="17.5" fill="#FFF6E1"/>
<g clip-path="url(#clip0)">
<path d="M27.4531 24.4609H8.625C8.26234 24.5781 8 24.8405 8 25.1641V26.4141C8 26.7377 8.26234 27 8.58594 27H27.4141C27.7377 27 28 26.7377 28 26.4141V25.1641C28 24.8405 27.7377 24.5781 27.4531 24.4609Z" fill="#2389FC"/>
<path d="M27.4531 24.4609H8.625C8.26234 24.5781 8 24.8405 8 25.1641V26.4141C8 26.7377 8.26234 27 8.58594 27H27.4141C27.7377 27 28 26.7377 28 26.4141V25.1641C28 24.8405 27.7377 24.5781 27.4531 24.4609Z" fill="url(#paint0_linear)"/>
<path d="M27.6386 10.9517L18.2246 7.04547C18.0808 6.98582 17.9192 6.98582 17.7754 7.04547L8.36137 10.9517C8.14258 11.0425 8 11.2561 8 11.4929V12.6648C8 12.9884 8.26234 13.2507 8.58594 13.2507H27.4141C27.7377 13.2507 28 12.9884 28 12.6648V11.4929C28 11.2561 27.8574 11.0425 27.6386 10.9517ZM21.5156 11.4929H14.4844C14.1608 11.4929 13.8984 11.2305 13.8984 10.907C13.8984 10.5834 14.1608 10.321 14.4844 10.321H21.5156C21.8392 10.321 22.1016 10.5834 22.1016 10.907C22.1016 11.2305 21.8392 11.4929 21.5156 11.4929Z" fill="#2389FC"/>
<path d="M27.6386 10.9517L18.2246 7.04547C18.0808 6.98582 17.9192 6.98582 17.7754 7.04547L8.36137 10.9517C8.14258 11.0425 8 11.2561 8 11.4929V12.6648C8 12.9884 8.26234 13.2507 8.58594 13.2507H27.4141C27.7377 13.2507 28 12.9884 28 12.6648V11.4929C28 11.2561 27.8574 11.0425 27.6386 10.9517ZM21.5156 11.4929H14.4844C14.1608 11.4929 13.8984 11.2305 13.8984 10.907C13.8984 10.5834 14.1608 10.321 14.4844 10.321H21.5156C21.8392 10.321 22.1016 10.5834 22.1016 10.907C22.1016 11.2305 21.8392 11.4929 21.5156 11.4929Z" fill="url(#paint1_linear)"/>
<path d="M9.11328 22.2344V23.4062H13.6055V22.2344C13.6055 21.9108 13.3431 21.6484 13.0195 21.6484H9.69922C9.37563 21.6484 9.11328 21.9108 9.11328 22.2344Z" fill="#2389FC"/>
<path d="M9.11328 22.2344V23.4062H13.6055V22.2344C13.6055 21.9108 13.3431 21.6484 13.0195 21.6484H9.69922C9.37563 21.6484 9.11328 21.9108 9.11328 22.2344Z" fill="url(#paint2_linear)"/>
<path d="M9.89453 14.4219H12.8242V20.4766H9.89453V14.4219Z" fill="#2389FC"/>
<path d="M9.89453 14.4219H12.8242V20.4766H9.89453V14.4219Z" fill="url(#paint3_linear)"/>
<path d="M23.1758 14.4219H26.1055V20.4766H23.1758V14.4219Z" fill="#2389FC"/>
<path d="M23.1758 14.4219H26.1055V20.4766H23.1758V14.4219Z" fill="url(#paint4_linear)"/>
<path d="M22.3945 22.2344V23.4062H26.8867V22.2344C26.8867 21.9108 26.6244 21.6484 26.3008 21.6484H22.9805C22.6569 21.6484 22.3945 21.9108 22.3945 22.2344Z" fill="#2389FC"/>
<path d="M22.3945 22.2344V23.4062H26.8867V22.2344C26.8867 21.9108 26.6244 21.6484 26.3008 21.6484H22.9805C22.6569 21.6484 22.3945 21.9108 22.3945 22.2344Z" fill="url(#paint5_linear)"/>
<path d="M18 20.6719C17.6769 20.6719 17.4141 20.409 17.4141 20.0859C17.4141 19.7623 17.1517 19.5 16.8281 19.5C16.5045 19.5 16.2422 19.7623 16.2422 20.0859C16.2422 20.8498 16.7321 21.5011 17.4141 21.743V22.0391C17.4141 22.3627 17.6764 22.625 18 22.625C18.3236 22.625 18.5859 22.3627 18.5859 22.0391V21.743C19.2679 21.5011 19.7578 20.8498 19.7578 20.0859C19.7578 19.1167 18.9693 18.3281 18 18.3281C17.6769 18.3281 17.4141 18.0653 17.4141 17.7422C17.4141 17.4191 17.6769 17.1562 18 17.1562C18.3231 17.1562 18.5859 17.4191 18.5859 17.7422C18.5859 18.0658 18.8483 18.3281 19.1719 18.3281C19.4955 18.3281 19.7578 18.0658 19.7578 17.7422C19.7578 16.9783 19.2679 16.327 18.5859 16.0852V15.7891C18.5859 15.4655 18.3236 15.2031 18 15.2031C17.6764 15.2031 17.4141 15.4655 17.4141 15.7891V16.0852C16.7321 16.327 16.2422 16.9783 16.2422 17.7422C16.2422 18.7114 17.0307 19.5 18 19.5C18.3231 19.5 18.5859 19.7629 18.5859 20.0859C18.5859 20.409 18.3231 20.6719 18 20.6719Z" fill="#2389FC"/>
<path d="M18 20.6719C17.6769 20.6719 17.4141 20.409 17.4141 20.0859C17.4141 19.7623 17.1517 19.5 16.8281 19.5C16.5045 19.5 16.2422 19.7623 16.2422 20.0859C16.2422 20.8498 16.7321 21.5011 17.4141 21.743V22.0391C17.4141 22.3627 17.6764 22.625 18 22.625C18.3236 22.625 18.5859 22.3627 18.5859 22.0391V21.743C19.2679 21.5011 19.7578 20.8498 19.7578 20.0859C19.7578 19.1167 18.9693 18.3281 18 18.3281C17.6769 18.3281 17.4141 18.0653 17.4141 17.7422C17.4141 17.4191 17.6769 17.1562 18 17.1562C18.3231 17.1562 18.5859 17.4191 18.5859 17.7422C18.5859 18.0658 18.8483 18.3281 19.1719 18.3281C19.4955 18.3281 19.7578 18.0658 19.7578 17.7422C19.7578 16.9783 19.2679 16.327 18.5859 16.0852V15.7891C18.5859 15.4655 18.3236 15.2031 18 15.2031C17.6764 15.2031 17.4141 15.4655 17.4141 15.7891V16.0852C16.7321 16.327 16.2422 16.9783 16.2422 17.7422C16.2422 18.7114 17.0307 19.5 18 19.5C18.3231 19.5 18.5859 19.7629 18.5859 20.0859C18.5859 20.409 18.3231 20.6719 18 20.6719Z" fill="url(#paint6_linear)"/>
</g>
<defs>
<linearGradient id="paint0_linear" x1="16.7333" y1="24.4609" x2="18.045" y2="28.9638" gradientUnits="userSpaceOnUse">
<stop stop-color="#F68B0E"/>
<stop offset="1" stop-color="#F0BA3E"/>
</linearGradient>
<linearGradient id="paint1_linear" x1="16.7333" y1="7.00073" x2="22.4277" y2="14.9421" gradientUnits="userSpaceOnUse">
<stop stop-color="#F68B0E"/>
<stop offset="1" stop-color="#F0BA3E"/>
</linearGradient>
<linearGradient id="paint2_linear" x1="11.0749" y1="21.6484" x2="12.7561" y2="23.5208" gradientUnits="userSpaceOnUse">
<stop stop-color="#F68B0E"/>
<stop offset="1" stop-color="#F0BA3E"/>
</linearGradient>
<linearGradient id="paint3_linear" x1="11.1738" y1="14.4219" x2="13.5257" y2="14.9178" gradientUnits="userSpaceOnUse">
<stop stop-color="#F68B0E"/>
<stop offset="1" stop-color="#F0BA3E"/>
</linearGradient>
<linearGradient id="paint4_linear" x1="24.4551" y1="14.4219" x2="26.8069" y2="14.9178" gradientUnits="userSpaceOnUse">
<stop stop-color="#F68B0E"/>
<stop offset="1" stop-color="#F0BA3E"/>
</linearGradient>
<linearGradient id="paint5_linear" x1="24.3561" y1="21.6484" x2="26.0373" y2="23.5208" gradientUnits="userSpaceOnUse">
<stop stop-color="#F68B0E"/>
<stop offset="1" stop-color="#F0BA3E"/>
</linearGradient>
<linearGradient id="paint6_linear" x1="17.7773" y1="15.2031" x2="20.6046" y2="15.7868" gradientUnits="userSpaceOnUse">
<stop stop-color="#F68B0E"/>
<stop offset="1" stop-color="#F0BA3E"/>
</linearGradient>
<clipPath id="clip0">
<rect width="20" height="20" fill="white" transform="translate(8 7)"/>
</clipPath>
</defs>
</svg>
