<svg width="35" height="35" viewBox="0 0 35 35" fill="none" xmlns="http://www.w3.org/2000/svg">
<circle cx="17.5" cy="17.5" r="17.5" fill="#FFF6E1"/>
<path d="M28 13.3672V12.3125C28 11.1044 27.0206 10.125 25.8125 10.125H10.1875C8.97938 10.125 8 11.1044 8 12.3125V13.3672C8 13.475 8.08746 13.5625 8.19531 13.5625H27.8047C27.9125 13.5625 28 13.475 28 13.3672Z" fill="#2389FC"/>
<path d="M28 13.3672V12.3125C28 11.1044 27.0206 10.125 25.8125 10.125H10.1875C8.97938 10.125 8 11.1044 8 12.3125V13.3672C8 13.475 8.08746 13.5625 8.19531 13.5625H27.8047C27.9125 13.5625 28 13.475 28 13.3672Z" fill="url(#paint0_linear)"/>
<path d="M8 15.0078V21.6875C8 22.8956 8.97938 23.875 10.1875 23.875H25.8125C27.0206 23.875 28 22.8956 28 21.6875V15.0078C28 14.9 27.9125 14.8125 27.8047 14.8125H8.19531C8.08746 14.8125 8 14.9 8 15.0078ZM13 20.125C13 20.4702 12.7202 20.75 12.375 20.75H11.75C11.4048 20.75 11.125 20.4702 11.125 20.125V19.5C11.125 19.1548 11.4048 18.875 11.75 18.875H12.375C12.7202 18.875 13 19.1548 13 19.5V20.125Z" fill="#2389FC"/>
<path d="M8 15.0078V21.6875C8 22.8956 8.97938 23.875 10.1875 23.875H25.8125C27.0206 23.875 28 22.8956 28 21.6875V15.0078C28 14.9 27.9125 14.8125 27.8047 14.8125H8.19531C8.08746 14.8125 8 14.9 8 15.0078ZM13 20.125C13 20.4702 12.7202 20.75 12.375 20.75H11.75C11.4048 20.75 11.125 20.4702 11.125 20.125V19.5C11.125 19.1548 11.4048 18.875 11.75 18.875H12.375C12.7202 18.875 13 19.1548 13 19.5V20.125Z" fill="url(#paint1_linear)"/>
<defs>
<linearGradient id="paint0_linear" x1="16.7333" y1="10.125" x2="18.9905" y2="15.8483" gradientUnits="userSpaceOnUse">
<stop stop-color="#F68B0E"/>
<stop offset="1" stop-color="#F0BA3E"/>
</linearGradient>
<linearGradient id="paint1_linear" x1="16.7333" y1="14.8125" x2="25.4445" y2="23.1908" gradientUnits="userSpaceOnUse">
<stop stop-color="#F68B0E"/>
<stop offset="1" stop-color="#F0BA3E"/>
</linearGradient>
</defs>
</svg>
