<svg width="20" height="10" viewBox="0 0 20 10" fill="none" xmlns="http://www.w3.org/2000/svg">
<g clip-path="url(#clip0)">
<path d="M19.7709 4.42927C19.7706 4.42903 19.7704 4.42875 19.7702 4.42851L15.688 0.234958C15.3821 -0.0791951 14.8875 -0.078026 14.5831 0.2377C14.2787 0.553385 14.2799 1.06399 14.5857 1.37818L17.3265 4.19367H0.78125C0.349766 4.19367 0 4.55472 0 5.00012C0 5.44552 0.349766 5.80657 0.78125 5.80657H17.3264L14.5857 8.62206C14.2799 8.93625 14.2788 9.44685 14.5831 9.76254C14.8875 10.0783 15.3822 10.0794 15.688 9.76528L19.7702 5.57173C19.7704 5.57149 19.7706 5.57121 19.7709 5.57097C20.0769 5.25573 20.0759 4.74347 19.7709 4.42927Z" fill="#4B7BC0"/>
</g>
<defs>
<clipPath id="clip0">
<rect width="20" height="10" fill="white"/>
</clipPath>
</defs>
</svg>
