<svg width="50" height="18" viewBox="0 0 50 18" fill="none" xmlns="http://www.w3.org/2000/svg">
<path fill-rule="evenodd" clip-rule="evenodd" d="M32.1206 9.50914C32.1573 9.7292 32.1757 9.89424 32.2123 10.0593C32.5791 11.5998 33.7895 12.6267 35.3666 12.7551C36.7603 12.8652 37.8606 12.3333 38.6675 11.1963C39.071 10.6461 39.7129 10.5545 40.2263 10.9946C40.5197 11.2513 40.5564 11.5814 40.318 11.8932C40.1897 12.0582 40.0613 12.2233 39.9329 12.4067C39.4011 13.1402 38.7042 13.6354 37.8423 13.9288C36.4486 14.4056 35.0549 14.479 33.6795 13.9654C31.8273 13.2869 30.727 11.9298 30.4152 9.98598C30.2318 8.79398 30.3419 7.60194 30.892 6.51996C31.6805 4.97949 32.9276 4.02591 34.6514 3.75084C35.7884 3.56744 36.9254 3.6775 37.989 4.19096C39.4928 4.90616 40.4098 6.11651 40.7582 7.73032C40.8499 8.17044 40.8865 8.62891 40.9232 9.06904C40.9599 9.34412 40.8315 9.47249 40.5381 9.49084C40.4098 9.49084 40.2814 9.49084 40.153 9.49084C37.5856 9.49084 35.0182 9.49084 32.4508 9.49084C32.3774 9.50915 32.2857 9.50915 32.1206 9.50915V9.50914ZM39.1443 7.822C38.9243 6.37323 37.1821 5.12621 35.5866 5.21791C33.9178 5.3096 32.249 6.5933 32.194 7.822C34.4863 7.822 36.8153 7.822 39.1443 7.822Z" fill="#909DA3"/>
<path fill-rule="evenodd" clip-rule="evenodd" d="M20.6215 9.47213C20.6399 9.61886 20.6582 9.72887 20.6765 9.83892C20.9883 11.5444 22.382 12.7181 24.1059 12.7548C25.4079 12.7731 26.4349 12.2413 27.1868 11.1776C27.5902 10.6091 28.3054 10.5541 28.8006 11.0493C29.039 11.306 29.0756 11.5994 28.8556 11.8928C28.7639 12.0396 28.6538 12.1679 28.5438 12.2963C27.9753 13.1216 27.2051 13.6534 26.2515 13.9651C24.8577 14.4236 23.464 14.4603 22.1253 13.9284C20.1997 13.1766 19.1178 11.7094 18.8977 9.65553C18.7876 8.66524 18.8793 7.69331 19.3011 6.79471C20.0897 5.07085 21.3917 4.00722 23.299 3.7505C24.3076 3.62213 25.3162 3.69547 26.2515 4.0806C27.9386 4.77746 28.9289 6.0795 29.2957 7.85838C29.369 8.26183 29.4058 8.68364 29.4241 9.08709C29.4424 9.41719 29.369 9.49054 29.0206 9.49054C28.4154 9.49054 27.7919 9.49054 27.1868 9.49054C25.1328 9.49054 23.0789 9.49054 21.0433 9.49054C20.9149 9.47214 20.7865 9.47214 20.6215 9.47214L20.6215 9.47213ZM27.6636 7.78495C27.4435 6.35454 25.7564 5.14418 24.1058 5.18086C22.4921 5.21753 20.8232 6.50126 20.6948 7.78495C23.0055 7.78495 25.3162 7.78495 27.6636 7.78495Z" fill="#909DA3"/>
<path fill-rule="evenodd" clip-rule="evenodd" d="M46.1863 10.2784C46.3146 10.3884 46.388 10.4618 46.4614 10.5351C47.36 11.3054 48.2586 12.0572 49.1388 12.8275C49.1938 12.8825 49.2672 12.9375 49.3222 12.9925C49.6523 13.3226 49.689 13.7994 49.3772 14.1295C49.0838 14.4596 48.607 14.5146 48.2586 14.2212C47.6351 13.7077 47.0299 13.1759 46.4247 12.6624C45.5445 11.9106 44.6825 11.177 43.8023 10.4251C43.7289 10.3518 43.6372 10.2967 43.5089 10.1867C43.5089 10.3701 43.4905 10.4801 43.4905 10.6085C43.4905 12.7174 43.4905 14.8264 43.4905 16.9353C43.4905 17.027 43.4905 17.1371 43.4905 17.2287C43.4538 17.6872 43.1054 18.0173 42.6469 17.999C42.2068 17.9806 41.8951 17.6505 41.8767 17.1921C41.8767 17.1004 41.8767 16.9903 41.8767 16.8987C41.8767 12.7358 41.8767 8.57293 41.8767 4.41003C41.8767 4.28166 41.8767 4.15329 41.8767 4.02493C41.8767 3.73154 41.9134 3.67651 42.1885 3.67651C42.5736 3.65815 42.9587 3.65815 43.3255 3.65815C44.2424 3.65815 45.1777 3.69482 46.0946 3.63979C47.6351 3.56645 49.3589 4.81347 49.524 6.62897C49.6707 8.26113 48.5703 9.80155 46.9015 10.1317C46.6998 10.1683 46.4797 10.2234 46.1863 10.2784H46.1863ZM43.3805 8.9947C43.4722 9.01306 43.5455 9.01306 43.6005 9.01306C44.3708 9.01306 45.141 9.01306 45.9112 9.01306C46.1313 9.01306 46.3513 8.9947 46.5714 8.92136C47.2866 8.7013 47.8551 8.27949 48.0385 7.50926C48.3502 6.20721 47.3783 4.99686 46.0396 4.99686C45.251 4.99686 44.4624 4.99686 43.6555 4.99686C43.5638 4.99686 43.4721 5.01522 43.3804 5.01522C43.3805 6.35389 43.3805 7.65594 43.3805 8.9947Z" fill="#909DA3"/>
<path fill-rule="evenodd" clip-rule="evenodd" d="M16.239 9.52667C14.7169 9.52667 13.2315 9.52667 11.7277 9.52667C11.7277 9.65504 11.7094 9.78341 11.7094 9.89346C11.7094 11.0488 11.7094 12.2041 11.7094 13.3595C11.7094 13.5062 11.7094 13.6529 11.6727 13.7813C11.5626 14.1297 11.1959 14.3498 10.8474 14.3314C10.4623 14.2948 10.1506 14.0013 10.0956 13.6162C10.0772 13.5245 10.0956 13.4328 10.0956 13.3412C10.0956 9.21495 10.0956 5.08876 10.0956 0.980917C10.0956 0.815882 10.1139 0.650807 10.1689 0.504122C10.2973 0.155702 10.6641 -0.0460428 11.0491 0.00898491C11.3976 0.0640126 11.691 0.357414 11.7277 0.724185C11.746 0.834241 11.7277 0.944248 11.7277 1.0543C11.7277 3.1816 11.7277 5.29055 11.7277 7.41781C11.7277 7.54617 11.746 7.67454 11.746 7.78459C12.0211 7.85793 15.9456 7.85793 16.239 7.78459C16.239 7.6929 16.2574 7.58285 16.2574 7.47283C16.2574 6.53757 16.2574 5.60231 16.2574 4.66704C16.2574 4.57534 16.2574 4.48364 16.2574 4.39195C16.294 3.97014 16.6058 3.65838 17.0276 3.64007C17.4494 3.62172 17.8161 3.93347 17.8712 4.35528C17.8895 4.44697 17.8712 4.53867 17.8712 4.63037C17.8712 7.52785 17.8712 10.4254 17.8712 13.3229C17.8712 13.4146 17.8712 13.5063 17.8712 13.598C17.8161 14.0198 17.4494 14.3498 17.0459 14.3315C16.6241 14.3132 16.294 13.9831 16.2574 13.5613C16.2574 13.4696 16.2574 13.3779 16.2574 13.2862C16.2574 12.1676 16.2574 11.0305 16.2574 9.9119C16.239 9.80176 16.239 9.67335 16.239 9.52667H16.239Z" fill="#909DA3"/>
<path fill-rule="evenodd" clip-rule="evenodd" d="M4.59389 14.3673C3.51191 14.3489 2.5033 14.1105 1.56799 13.5603C1.16454 13.3219 0.797764 13.0285 0.504363 12.6801C0.357639 12.4967 0.210971 12.295 0.100915 12.0749C-0.0824786 11.7265 -0.00914108 11.4514 0.265949 11.1763C0.577701 10.8829 1.01782 10.7545 1.43963 11.048C1.64137 11.1947 1.82472 11.3781 1.9898 11.5615C2.15483 11.7265 2.2832 11.9099 2.44827 12.075C2.94342 12.5701 3.54857 12.8452 4.24546 12.9185C4.88733 12.9919 5.52915 12.9736 6.15266 12.7535C6.40939 12.6618 6.66615 12.5334 6.88622 12.3684C7.41804 11.9649 7.43639 11.2864 6.92289 10.8646C6.68447 10.6629 6.39107 10.5162 6.09763 10.3879C5.36407 10.0761 4.61219 9.85604 3.84196 9.65429C3.21845 9.50757 2.61325 9.30586 1.98974 9.12247C1.75132 9.04913 1.53127 8.92073 1.31121 8.81072C0.72437 8.49896 0.394252 8.00381 0.302563 7.36195C0.11917 6.0599 0.614315 5.01459 1.78799 4.44611C3.58518 3.56587 5.40069 3.49249 7.17957 4.51945C7.50968 4.70284 7.82143 4.97791 8.11483 5.23465C8.33489 5.41804 8.48162 5.69312 8.57331 5.9682C8.72003 6.445 8.48161 6.68341 8.0598 6.77511C7.69303 6.84845 7.36296 6.73844 7.10618 6.46335C7.05116 6.40832 7.01449 6.35329 6.97782 6.29831C6.55602 5.67481 5.95086 5.32638 5.2173 5.17966C4.48374 5.05129 3.75021 5.0696 3.05332 5.34469C2.79659 5.43639 2.53983 5.58311 2.33812 5.7665C1.84297 6.1883 1.84297 6.75679 2.31977 7.19691C2.63152 7.49031 2.9983 7.65538 3.40175 7.74708C4.28199 7.96714 5.18058 8.1872 6.06087 8.40726C6.62936 8.55399 7.17952 8.73737 7.69302 9.03076C8.3532 9.37919 8.83004 9.8927 8.99507 10.6446C9.19681 11.5615 8.99507 12.3684 8.27987 13.0286C7.47297 13.7622 6.53771 14.1839 5.45572 14.3123C5.16241 14.3306 4.86896 14.3489 4.59388 14.3672L4.59389 14.3673Z" fill="#909DA3"/>
</svg>
