<svg width="41" height="41" viewBox="0 0 41 41" fill="none" xmlns="http://www.w3.org/2000/svg">
<circle cx="20.5" cy="20.5" r="20.5" fill="#F0F5FC"/>
<g clip-path="url(#clip0)">
<path d="M31.2243 22.7353C31.8806 17.2105 30.9089 13.7226 29.1563 12.145L29.1572 12.1441C26.3284 9.45002 16.7749 9.05127 13.3905 12.2651C11.8707 13.8372 11.3354 16.1444 11.2767 19.0008C11.218 21.858 11.1484 27.2104 16.1359 28.6624H16.1405L16.1359 30.8799C16.1359 30.8799 16.102 31.7782 16.6759 31.9588C17.3322 32.1714 17.6292 31.7544 19.6706 29.316C23.0843 29.6121 25.7059 28.9338 26.0039 28.8348C26.6932 28.6038 30.5936 28.0877 31.2243 22.7353ZM20.007 27.7559C20.007 27.7559 17.8464 30.4499 17.1745 31.1494C16.9545 31.3767 16.7134 31.3556 16.7171 30.9046C16.7171 30.6085 16.7336 27.2233 16.7336 27.2233C12.505 26.0114 12.7544 21.4538 12.8002 19.0695C12.846 16.6844 13.2824 14.7309 14.5694 13.4155C17.5384 10.6316 25.914 11.254 28.048 13.2597C30.6569 15.5724 29.7283 22.1064 29.7338 22.3292C29.1975 26.797 26.0369 27.0803 25.4557 27.2737C25.2073 27.3562 22.9019 27.9493 20.007 27.7559Z" fill="#4B7BC0"/>
<path d="M21.2022 13.9388C20.8493 13.9388 20.8493 14.4888 21.2022 14.4934C23.9403 14.5145 26.1953 16.423 26.22 19.9238C26.22 20.2932 26.7609 20.2886 26.7563 19.9192H26.7554C26.726 16.1471 24.2639 13.9599 21.2022 13.9388Z" fill="#4B7BC0"/>
<path d="M24.8052 19.3436C24.7969 19.7084 25.3369 19.7259 25.3414 19.3564C25.3864 17.2765 24.1039 15.5633 21.694 15.3827C21.3411 15.357 21.3044 15.9116 21.6564 15.9373C23.7464 16.0959 24.8474 17.5222 24.8052 19.3436Z" fill="#4B7BC0"/>
<path d="M24.2264 21.7096C23.7736 21.4474 23.3125 21.6106 23.1218 21.8681L22.7231 22.3842C22.5205 22.6464 22.1419 22.6116 22.1419 22.6116C19.3791 21.881 18.6402 18.9898 18.6402 18.9898C18.6402 18.9898 18.6063 18.5984 18.8593 18.3885L19.358 17.976C19.6073 17.778 19.765 17.3013 19.5111 16.8329C18.8327 15.6073 18.3771 15.1847 18.1452 14.8602C17.9014 14.555 17.5347 14.4862 17.1534 14.6925H17.1451C16.3522 15.1563 15.4841 16.0244 15.7619 16.9181C16.2358 17.8605 17.1066 20.8644 19.8823 23.1341C21.1867 24.2075 23.2511 25.3075 24.1274 25.5614L24.1356 25.5742C24.9991 25.8621 25.8388 24.9601 26.2871 24.1433V24.1369C26.486 23.7418 26.42 23.3678 26.1294 23.1231C25.6142 22.6207 24.8369 22.0661 24.2264 21.7096Z" fill="#4B7BC0"/>
<path d="M22.0703 17.4286C22.9512 17.4799 23.3784 17.9401 23.4242 18.8852C23.4407 19.2546 23.9769 19.2289 23.9604 18.8595C23.9018 17.6257 23.2583 16.9382 22.0996 16.874C21.7467 16.8529 21.7137 17.4075 22.0703 17.4286Z" fill="#4B7BC0"/>
</g>
<defs>
<clipPath id="clip0">
<rect width="22" height="22" fill="white" transform="translate(10 10)"/>
</clipPath>
</defs>
</svg>
