<svg width="18" height="21" viewBox="0 0 18 21" fill="none" xmlns="http://www.w3.org/2000/svg">
<path d="M17.4782 4.66317C17.1435 3.45057 16.4805 2.49276 15.5098 1.81538C14.2841 0.957561 12.8746 0.655391 11.6575 0.470176C9.9732 0.215397 8.44837 0.179745 6.9934 0.359743C5.63057 0.529306 4.60459 0.799737 3.66903 1.23582C1.83393 2.09233 0.732518 3.47622 0.396095 5.34924C0.24221 6.18216 0.129216 7.02231 0.0575305 7.8666C-0.0894667 9.68006 0.0446736 11.2853 0.46638 12.7731C0.877801 14.2235 1.5965 15.2591 2.66277 15.9404C2.93405 16.1135 3.28204 16.2391 3.61846 16.36C3.8096 16.4278 3.9956 16.4939 4.14774 16.5669C4.28831 16.6334 4.28831 16.6452 4.28659 16.7639C4.27502 17.7947 4.28659 19.816 4.28659 19.816L4.29002 20.2473H5.05329L5.17758 20.1251C5.259 20.0469 7.15111 18.1921 7.82567 17.4452L7.91781 17.3413C8.03352 17.2056 8.03352 17.2056 8.15224 17.2039C9.06293 17.1852 9.99334 17.1495 10.9178 17.0987C12.0376 17.0378 13.3348 16.9269 14.5571 16.4108C15.6757 15.9369 16.4921 15.1848 16.9828 14.1761C17.4949 13.1226 17.7979 11.9831 17.9119 10.6909C18.1129 8.41834 17.9706 6.44662 17.4782 4.66317ZM13.4506 13.4996C13.1694 13.9635 12.7507 14.2865 12.257 14.4952C11.8953 14.6478 11.5272 14.6156 11.1706 14.4626C8.18566 13.1804 5.84356 11.1613 4.29645 8.25703C3.97674 7.65922 3.75603 7.00705 3.50147 6.37532C3.44961 6.24619 3.45304 6.09315 3.42947 5.95054C3.45089 4.93012 4.22317 4.35404 5.00315 4.181C5.301 4.11317 5.56543 4.22013 5.78656 4.43578C6.39308 5.02277 6.88839 5.71758 7.24797 6.48575C7.40696 6.82357 7.33496 7.1227 7.06368 7.374C7.00711 7.42618 6.94797 7.474 6.88626 7.52183C6.26698 7.99356 6.17656 8.35225 6.50655 9.06355C7.06883 10.2744 8.00309 11.0883 9.20993 11.5926C9.52792 11.7248 9.82792 11.6587 10.0705 11.397C10.1039 11.3631 10.1408 11.3292 10.1643 11.2883C10.64 10.4835 11.3313 10.5635 11.9686 11.0218C12.3873 11.3244 12.7944 11.6435 13.2076 11.9509C13.8388 12.4213 13.8337 12.8631 13.4506 13.4996ZM9.4915 5.46489C9.3505 5.46489 9.20993 5.47663 9.0715 5.50055C9.01598 5.50991 8.95919 5.50809 8.90436 5.49518C8.84954 5.48228 8.79775 5.45855 8.75197 5.42534C8.70618 5.39214 8.66729 5.3501 8.63752 5.30165C8.60775 5.2532 8.58767 5.19927 8.57844 5.14294C8.56921 5.08662 8.57101 5.029 8.58373 4.97338C8.59645 4.91776 8.61984 4.86522 8.65257 4.81877C8.6853 4.77233 8.72673 4.73287 8.77449 4.70267C8.82226 4.67246 8.87541 4.6521 8.93093 4.64273C9.11479 4.61056 9.30378 4.59534 9.4915 4.59534C11.348 4.59534 12.8579 6.12706 12.8579 8.01051C12.8579 8.20269 12.8429 8.39442 12.8107 8.58007C12.7896 8.69153 12.7264 8.7902 12.6345 8.85499C12.5427 8.91978 12.4295 8.94556 12.3191 8.92683C12.2088 8.9081 12.11 8.84633 12.044 8.75473C11.9779 8.66313 11.9498 8.54896 11.9656 8.4366C12.0259 8.07155 12.0072 7.69756 11.9107 7.34059C11.8143 6.98362 11.6423 6.65224 11.4069 6.36946C11.1715 6.08669 10.8782 5.8593 10.5474 5.70309C10.2167 5.54689 9.85635 5.4656 9.4915 5.46489ZM11.5722 8.07356C11.5722 8.31269 11.3793 8.50834 11.1436 8.50834C10.9079 8.50834 10.715 8.31269 10.715 8.07356C10.715 7.35531 10.1373 6.76923 9.42935 6.76923C9.19364 6.76923 9.00079 6.57358 9.00079 6.33445C9.00079 6.09532 9.19364 5.89967 9.42935 5.89967C10.6113 5.89967 11.5722 6.87444 11.5722 8.07356ZM14.0193 9.04007C13.9939 9.15261 13.9255 9.25033 13.8292 9.31172C13.7328 9.37312 13.6164 9.39317 13.5054 9.36745C13.3945 9.34174 13.2982 9.27237 13.2376 9.17461C13.1771 9.07685 13.1574 8.9587 13.1827 8.84616C13.2451 8.56652 13.2766 8.2807 13.2766 7.99399C13.2766 5.88098 11.5807 4.16056 9.49792 4.16056C9.21336 4.16056 8.93051 4.19274 8.65794 4.25578C8.60306 4.26862 8.54621 4.27031 8.49068 4.26076C8.43515 4.25121 8.38202 4.23061 8.33438 4.20014C8.28673 4.16966 8.2455 4.12992 8.21306 4.08321C8.18063 4.0365 8.15762 3.98373 8.14538 3.92796C8.13278 3.87231 8.13116 3.81468 8.14061 3.75839C8.15005 3.70211 8.17037 3.64827 8.20041 3.59998C8.23044 3.55169 8.26959 3.50991 8.3156 3.47703C8.36161 3.44415 8.41358 3.42083 8.46851 3.4084C8.80322 3.33014 9.14993 3.29101 9.49792 3.29101C12.0543 3.29101 14.1337 5.40055 14.1337 7.99356C14.1337 8.34703 14.0951 8.69877 14.0197 9.04007H14.0193Z" fill="#B681E0"/>
</svg>
