<svg width="38" height="38" viewBox="0 0 38 38" fill="none" xmlns="http://www.w3.org/2000/svg">
<g clip-path="url(#clip0)">
<path d="M18.9998 23.7471C18.3441 23.7471 17.8125 23.2154 17.8125 22.5597V14.2484C17.8125 13.5927 18.3441 13.061 18.9998 13.061C19.6556 13.061 20.1872 13.5927 20.1872 14.2484V22.5597C20.1872 23.2155 19.6556 23.7471 18.9998 23.7471Z" fill="#4B7BC0"/>
<path d="M37.4974 29.7083L22.7157 5.07249C21.0386 2.27623 16.9649 2.27082 15.2845 5.07249L0.50281 29.7083C-0.895057 32.038 0.786732 35.0268 3.51419 35.0268H34.4859C37.2138 35.0268 38.8949 32.0377 37.4974 29.7083ZM34.4859 32.6521H3.51427C2.62955 32.6521 2.08709 31.6822 2.53917 30.9297L17.3208 6.29396C18.0791 5.02997 19.9202 5.02848 20.6795 6.29396L35.4611 30.9297C35.9126 31.6814 35.3714 32.6521 34.4859 32.6521Z" fill="#4B7BC0"/>
<path d="M18.9998 28.4965C19.9834 28.4965 20.7808 27.6991 20.7808 26.7155C20.7808 25.7318 19.9834 24.9344 18.9998 24.9344C18.0161 24.9344 17.2188 25.7318 17.2188 26.7155C17.2188 27.6991 18.0161 28.4965 18.9998 28.4965Z" fill="#4B7BC0"/>
</g>
<defs>
<clipPath id="clip0">
<rect width="38" height="38" fill="white"/>
</clipPath>
</defs>
</svg>
