<svg width="41" height="41" viewBox="0 0 41 41" fill="none" xmlns="http://www.w3.org/2000/svg">
<circle cx="20.5" cy="20.5" r="20.5" fill="#F0F5FC"/>
<g clip-path="url(#clip0)">
<path d="M26.0482 22.1147L26.04 22.1835C24.0242 21.1788 23.8134 21.045 23.553 21.4355C23.3725 21.7059 22.8463 22.3192 22.6877 22.5007C22.5273 22.6794 22.3678 22.6932 22.0955 22.5694C21.8205 22.4319 20.9378 22.1432 19.8928 21.2082C19.0788 20.4794 18.5325 19.5857 18.3711 19.3107C18.1025 18.8468 18.6645 18.7808 19.176 17.8128C19.2676 17.6203 19.2209 17.4691 19.153 17.3325C19.0843 17.195 18.537 15.8475 18.3079 15.3103C18.0879 14.775 17.8615 14.8428 17.6919 14.8428C17.1639 14.797 16.778 14.8043 16.4379 15.1582C14.9584 16.7843 15.3315 18.4618 16.5974 20.2457C19.0852 23.5017 20.4107 24.1012 22.8344 24.9335C23.4889 25.1416 24.0856 25.1122 24.5577 25.0444C25.0839 24.961 26.1775 24.3835 26.4057 23.7372C26.6395 23.091 26.6395 22.5547 26.5707 22.431C26.5029 22.3072 26.3232 22.2385 26.0482 22.1147Z" fill="#4B7BC0"/>
<path d="M28.81 12.1615C21.7618 5.34791 10.0972 10.2897 10.0926 19.9018C10.0926 21.8232 10.5958 23.6968 11.5547 25.3514L10 30.9999L15.8071 29.4856C23.0533 33.3997 31.9963 28.2022 32 19.9073C32 16.996 30.8633 14.2561 28.7962 12.1972L28.81 12.1615ZM30.1685 19.8771C30.163 26.874 22.4823 31.2437 16.4075 27.6724L16.0775 27.4762L12.64 28.37L13.5612 25.0287L13.3422 24.685C9.56183 18.6671 13.905 10.8021 21.066 10.8021C23.4988 10.8021 25.7823 11.7508 27.5019 13.4696C29.2207 15.1737 30.1685 17.4571 30.1685 19.8771Z" fill="#4B7BC0"/>
</g>
<defs>
<clipPath id="clip0">
<rect width="22" height="22" fill="white" transform="translate(10 9)"/>
</clipPath>
</defs>
</svg>
