<svg width="18" height="18" viewBox="0 0 18 18" fill="none" xmlns="http://www.w3.org/2000/svg">
<g clip-path="url(#clip0)">
<path d="M9.00226 0H8.99776C4.03539 0 1.1809e-05 4.0365 1.1809e-05 9C-0.00306968 10.8956 0.596992 12.7431 1.71339 14.2751L0.591762 17.6186L4.05114 16.5128C5.51855 17.4863 7.24127 18.0038 9.00226 18C13.9646 18 18 13.9624 18 9C18 4.03763 13.9646 0 9.00226 0ZM14.2391 12.7091C14.022 13.3222 13.1603 13.8307 12.4729 13.9792C12.0026 14.0794 11.3884 14.1593 9.32064 13.302C6.67576 12.2063 4.97251 9.51862 4.83976 9.34425C4.71264 9.16988 3.77101 7.92113 3.77101 6.62963C3.77101 5.33813 4.42689 4.70925 4.69126 4.43925C4.90839 4.21763 5.26726 4.11637 5.61151 4.11637C5.72289 4.11637 5.82301 4.122 5.91301 4.1265C6.17739 4.13775 6.31014 4.1535 6.48451 4.57088C6.70164 5.094 7.23039 6.3855 7.29339 6.51825C7.35751 6.651 7.42164 6.831 7.33164 7.00538C7.24726 7.18538 7.17301 7.26525 7.04026 7.41825C6.90751 7.57125 6.78151 7.68825 6.64876 7.8525C6.52726 7.99538 6.39001 8.14838 6.54301 8.41275C6.69601 8.6715 7.22476 9.53438 8.00326 10.2274C9.00789 11.1217 9.82239 11.4075 10.1138 11.529C10.3309 11.619 10.5896 11.5976 10.7483 11.4289C10.9496 11.2118 11.1983 10.8518 11.4514 10.4974C11.6314 10.2431 11.8586 10.2116 12.0971 10.3016C12.3401 10.386 13.626 11.0216 13.8904 11.1532C14.1548 11.286 14.3291 11.349 14.3933 11.4604C14.4563 11.5717 14.4563 12.0949 14.2391 12.7091Z" fill="#6CA459"/>
</g>
<defs>
<clipPath id="clip0">
<rect width="18" height="18" fill="white"/>
</clipPath>
</defs>
</svg>
