<svg width="434" height="15" viewBox="0 0 434 15" fill="none" xmlns="http://www.w3.org/2000/svg">
<mask id="mask0" mask-type="alpha" maskUnits="userSpaceOnUse" x="0" y="0" width="434" height="15">
<rect width="434" height="15" fill="#C4C4C4"/>
</mask>
<g mask="url(#mask0)">
<path d="M7.21428 0H19L8 15H-5L7.21428 0Z" fill="#FBD785"/>
<path d="M55.2143 0H67L56 15H43L55.2143 0Z" fill="#FBD785"/>
<path d="M103.214 0H115L104 15H91L103.214 0Z" fill="#FBD785"/>
<path d="M151.214 0H163L152 15H139L151.214 0Z" fill="#FBD785"/>
<path d="M199.214 0H211L200 15H187L199.214 0Z" fill="#FBD785"/>
<path d="M247.214 0H259L248 15H235L247.214 0Z" fill="#FBD785"/>
<path d="M295.214 0H307L296 15H283L295.214 0Z" fill="#FBD785"/>
<path d="M343.214 0H355L344 15H331L343.214 0Z" fill="#FBD785"/>
<path d="M391.214 0H403L392 15H379L391.214 0Z" fill="#FBD785"/>
<path d="M439.214 0H451L440 15H427L439.214 0Z" fill="#FBD785"/>
<path d="M31.2143 0H43L32 15H19L31.2143 0Z" fill="#FBD785"/>
<path d="M79.2143 0H91L80 15H67L79.2143 0Z" fill="#FBD785"/>
<path d="M127.214 0H139L128 15H115L127.214 0Z" fill="#FBD785"/>
<path d="M175.214 0H187L176 15H163L175.214 0Z" fill="#FBD785"/>
<path d="M223.214 0H235L224 15H211L223.214 0Z" fill="#FBD785"/>
<path d="M271.214 0H283L272 15H259L271.214 0Z" fill="#FBD785"/>
<path d="M319.214 0H331L320 15H307L319.214 0Z" fill="#FBD785"/>
<path d="M367.214 0H379L368 15H355L367.214 0Z" fill="#FBD785"/>
<path d="M415.214 0H427L416 15H403L415.214 0Z" fill="#FBD785"/>
</g>
</svg>
